<mxfile host="Electron" agent="Mozilla/5.0 (Windows NT 10.0; Win64; x64) AppleWebKit/537.36 (KHTML, like Gecko) draw.io/26.0.15 Chrome/132.0.6834.196 Electron/34.2.0 Safari/537.36" version="26.0.15">
  <diagram name="Página-1" id="BWLcb8puxV5DTwIUHzVU">
    <mxGraphModel dx="1674" dy="1004" grid="1" gridSize="10" guides="1" tooltips="1" connect="1" arrows="1" fold="1" page="1" pageScale="1" pageWidth="827" pageHeight="1169" math="0" shadow="0">
      <root>
        <mxCell id="0" />
        <mxCell id="1" parent="0" />
        <mxCell id="TPlRJoIPfdAI7P-bpLI3-6" style="edgeStyle=orthogonalEdgeStyle;rounded=0;orthogonalLoop=1;jettySize=auto;html=1;exitX=0.5;exitY=0.5;exitDx=0;exitDy=0;exitPerimeter=0;entryX=0;entryY=0.5;entryDx=0;entryDy=0;" edge="1" parent="1" source="TPlRJoIPfdAI7P-bpLI3-1" target="TPlRJoIPfdAI7P-bpLI3-3">
          <mxGeometry relative="1" as="geometry" />
        </mxCell>
        <mxCell id="TPlRJoIPfdAI7P-bpLI3-7" style="edgeStyle=orthogonalEdgeStyle;rounded=0;orthogonalLoop=1;jettySize=auto;html=1;exitX=0.5;exitY=0.5;exitDx=0;exitDy=0;exitPerimeter=0;entryX=0;entryY=0.5;entryDx=0;entryDy=0;" edge="1" parent="1" source="TPlRJoIPfdAI7P-bpLI3-1" target="TPlRJoIPfdAI7P-bpLI3-2">
          <mxGeometry relative="1" as="geometry" />
        </mxCell>
        <mxCell id="TPlRJoIPfdAI7P-bpLI3-10" style="edgeStyle=orthogonalEdgeStyle;rounded=0;orthogonalLoop=1;jettySize=auto;html=1;exitX=0.5;exitY=0.5;exitDx=0;exitDy=0;exitPerimeter=0;entryX=0;entryY=0.5;entryDx=0;entryDy=0;" edge="1" parent="1" source="TPlRJoIPfdAI7P-bpLI3-1" target="TPlRJoIPfdAI7P-bpLI3-4">
          <mxGeometry relative="1" as="geometry" />
        </mxCell>
        <mxCell id="TPlRJoIPfdAI7P-bpLI3-1" value="Usuario&lt;div&gt;&lt;br&gt;&lt;/div&gt;" style="shape=umlActor;verticalLabelPosition=bottom;verticalAlign=top;html=1;outlineConnect=0;" vertex="1" parent="1">
          <mxGeometry x="70" y="490" width="30" height="60" as="geometry" />
        </mxCell>
        <mxCell id="TPlRJoIPfdAI7P-bpLI3-2" value="Eliminar informe" style="ellipse;whiteSpace=wrap;html=1;" vertex="1" parent="1">
          <mxGeometry x="250" y="390" width="140" height="70" as="geometry" />
        </mxCell>
        <mxCell id="TPlRJoIPfdAI7P-bpLI3-17" style="edgeStyle=orthogonalEdgeStyle;rounded=0;orthogonalLoop=1;jettySize=auto;html=1;exitX=1;exitY=0.5;exitDx=0;exitDy=0;entryX=0.5;entryY=0.5;entryDx=0;entryDy=0;entryPerimeter=0;" edge="1" parent="1" source="TPlRJoIPfdAI7P-bpLI3-3" target="TPlRJoIPfdAI7P-bpLI3-16">
          <mxGeometry relative="1" as="geometry">
            <Array as="points">
              <mxPoint x="463" y="315" />
              <mxPoint x="463" y="340" />
              <mxPoint x="520" y="340" />
              <mxPoint x="520" y="360" />
            </Array>
          </mxGeometry>
        </mxCell>
        <mxCell id="TPlRJoIPfdAI7P-bpLI3-3" value="Añadir informe" style="ellipse;whiteSpace=wrap;html=1;" vertex="1" parent="1">
          <mxGeometry x="250" y="280" width="140" height="70" as="geometry" />
        </mxCell>
        <mxCell id="TPlRJoIPfdAI7P-bpLI3-4" value="Consultar informe" style="ellipse;whiteSpace=wrap;html=1;" vertex="1" parent="1">
          <mxGeometry x="250" y="520" width="140" height="70" as="geometry" />
        </mxCell>
        <mxCell id="TPlRJoIPfdAI7P-bpLI3-5" value="Modificar informe" style="ellipse;whiteSpace=wrap;html=1;" vertex="1" parent="1">
          <mxGeometry x="480" y="520" width="140" height="70" as="geometry" />
        </mxCell>
        <mxCell id="TPlRJoIPfdAI7P-bpLI3-13" value="Extend" style="endArrow=open;endSize=12;dashed=1;html=1;rounded=0;exitX=0;exitY=0.5;exitDx=0;exitDy=0;entryX=1;entryY=0.5;entryDx=0;entryDy=0;" edge="1" parent="1" source="TPlRJoIPfdAI7P-bpLI3-5" target="TPlRJoIPfdAI7P-bpLI3-4">
          <mxGeometry width="160" relative="1" as="geometry">
            <mxPoint x="330" y="510" as="sourcePoint" />
            <mxPoint x="490" y="510" as="targetPoint" />
          </mxGeometry>
        </mxCell>
        <mxCell id="TPlRJoIPfdAI7P-bpLI3-16" value="Base de datos&lt;div&gt;&lt;br&gt;&lt;/div&gt;" style="shape=umlActor;verticalLabelPosition=bottom;verticalAlign=top;html=1;outlineConnect=0;" vertex="1" parent="1">
          <mxGeometry x="535" y="330" width="30" height="60" as="geometry" />
        </mxCell>
        <mxCell id="TPlRJoIPfdAI7P-bpLI3-18" style="edgeStyle=orthogonalEdgeStyle;rounded=0;orthogonalLoop=1;jettySize=auto;html=1;exitX=1;exitY=0.5;exitDx=0;exitDy=0;entryX=0.5;entryY=0.5;entryDx=0;entryDy=0;entryPerimeter=0;" edge="1" parent="1" source="TPlRJoIPfdAI7P-bpLI3-2" target="TPlRJoIPfdAI7P-bpLI3-16">
          <mxGeometry relative="1" as="geometry">
            <Array as="points">
              <mxPoint x="430" y="425" />
              <mxPoint x="430" y="360" />
            </Array>
          </mxGeometry>
        </mxCell>
        <mxCell id="TPlRJoIPfdAI7P-bpLI3-20" style="edgeStyle=orthogonalEdgeStyle;rounded=0;orthogonalLoop=1;jettySize=auto;html=1;exitX=1;exitY=0.5;exitDx=0;exitDy=0;entryX=0.5;entryY=0.5;entryDx=0;entryDy=0;entryPerimeter=0;" edge="1" parent="1" source="TPlRJoIPfdAI7P-bpLI3-4" target="TPlRJoIPfdAI7P-bpLI3-16">
          <mxGeometry relative="1" as="geometry">
            <Array as="points">
              <mxPoint x="390" y="460" />
              <mxPoint x="490" y="460" />
              <mxPoint x="490" y="360" />
            </Array>
          </mxGeometry>
        </mxCell>
      </root>
    </mxGraphModel>
  </diagram>
</mxfile>
